# xmcd CD database file
#
# Track frame offsets:
#	150
#	21842
#	42332
#	56505
#	67495
#	80605
#	106327
#	121402
#	138255
#	155322
#	166965
#	187217
#	198780
#	222390
#
# Disc length: 3552 seconds
#
# Revision: 0
# Processed by: cddbd v1.4PL0 Copyright (c) Steve Scherf et al.
# Submitted via: CDex 1.40Beta6
#
DISCID=cc0dde0e
DTITLE=Townes Van Zandt - Live At The Old Quarter, Houston, Texas [CD2)
DYEAR=1973
DGENRE=Country
TTITLE0=For The Sake Of The Song
TTITLE1=Chauffeur's Blues
TTITLE2=No Place To Fall
TTITLE3=Loretta
TTITLE4=Kathleen
TTITLE5=Why She's Acting This Way
TTITLE6=Cocaine Blues
TTITLE7=Who Do You Love
TTITLE8=Tower Song
TTITLE9=Waiting 'Round To Die
TTITLE10=Tecumseh Valley
TTITLE11=Lungs
TTITLE12=Only Him Or Me
TTITLE13=Data
EXTD=
EXTT0=
EXTT1=
EXTT2=
EXTT3=
EXTT4=
EXTT5=
EXTT6=
EXTT7=
EXTT8=
EXTT9=
EXTT10=
EXTT11=
EXTT12=
EXTT13=
PLAYORDER=
